<svg width="160" height="90" fill="none" xmlns="http://www.w3.org/2000/svg"><path d="M6.354 46.075a48.92 48.92 0 01-.42-.52c.149-.169.32-.36.512-.57a86.77 86.77 0 013.854-3.953c3.396-3.28 8.408-7.66 14.855-12.041C38.056 20.226 56.642 11.5 79.5 11.5c24.373 0 42.954 8.736 55.453 17.48 6.251 4.372 10.975 8.743 14.132 12.015a72.888 72.888 0 013.548 3.939c.207.248.386.468.537.657a36.01 36.01 0 01-.394.584 53.038 53.038 0 01-2.99 3.91c-2.716 3.251-6.913 7.603-12.803 11.959C125.218 70.745 106.651 79.5 79.5 79.5c-24.625 0-43.205-8.738-55.637-17.477-6.219-4.372-10.895-8.741-14.012-12.011a70.643 70.643 0 01-3.497-3.937z" stroke="#fff" stroke-width="3"/><path d="M115.967 41.718c-1.052-12.259-10.879-21.994-23.178-22.924 7.899 4.255 13.269 12.598 13.269 22.198 0 .246-.031.483-.038.726h-8.091l12.49 16.076 13.491-16.076h-7.943zm-61.287 9.29c0-.273.031-.537.04-.807h8.351L50.582 34.126 37.09 50.2h7.675c1.018 12.297 10.858 22.075 23.182 23.006-7.897-4.257-13.266-12.6-13.266-22.198z" fill="#fff"/><path d="M88 30H71v17h5l-1.5 18.25L90 44H78l10-14z" fill="#77B900"/></svg>