<svg width="81" height="60" fill="none" xmlns="http://www.w3.org/2000/svg"><g clip-path="url(#clip0)"><path d="M80.435 58.102c0 .874-.639 1.46-1.394 1.46v-.005c-.777.006-1.403-.581-1.403-1.455 0-.874.626-1.46 1.403-1.46.756 0 1.394.586 1.394 1.46zm.565 0c0-1.2-.926-1.897-1.959-1.897-1.04 0-1.966.697-1.966 1.897 0 1.199.927 1.898 1.966 1.898C80.074 60 81 59.3 81 58.102zm-2.284.16h.21l.486.859h.534l-.539-.895c.279-.02.507-.153.507-.53 0-.468-.32-.619-.864-.619h-.786v2.044h.452v-.859zm0-.346v-.492h.315c.17 0 .403.014.403.224 0 .228-.12.268-.322.268h-.396zM67.808 47.65l2.442 6.721h-4.96l2.518-6.722zm-2.616-2.618l-5.629 14.347h3.975l.89-2.535h6.661l.843 2.535h4.315L70.576 45.03l-5.384.002zm-11.3 14.352h4.032V45.027H53.89v14.357zM25.896 45.026l-3.364 11.38-3.223-11.379h-4.351l4.603 14.357h5.81l4.64-14.358h-4.115zm16.3 3.127h1.733c2.514 0 4.14 1.135 4.14 4.083 0 2.947-1.626 4.083-4.14 4.083h-1.733v-8.166zm-3.999-3.127v14.358h6.538c3.483 0 4.62-.582 5.85-1.889.869-.917 1.43-2.93 1.43-5.132 0-2.019-.475-3.818-1.304-4.94-1.494-2.004-3.645-2.397-6.856-2.397h-5.658zM0 45.006v14.378h4.067V48.467l3.15.001c1.044 0 1.788.262 2.29.802.637.682.897 1.785.897 3.8v6.314h3.941V51.44c0-5.669-3.592-6.433-7.107-6.433H0zm31.708.02l.002 14.358h4.03V45.026h-4.032z" fill="#fff"/><path d="M10.837 16.439S16.024 8.74 26.38 7.944V5.151c-11.47.927-21.402 10.7-21.402 10.7s5.625 16.36 21.402 17.859v-2.97c-11.579-1.464-15.543-14.3-15.543-14.3zm15.542 8.398v2.719c-8.75-1.57-11.179-10.72-11.179-10.72s4.201-4.682 11.18-5.442v2.983l-.014-.001c-3.662-.442-6.523 3-6.523 3s1.603 5.794 6.536 7.461zM26.38 0v5.151c.337-.026.674-.048 1.012-.06 13.04-.441 21.537 10.76 21.537 10.76S39.17 27.79 29.003 27.79a14.91 14.91 0 01-2.624-.233v3.185c.701.09 1.427.142 2.185.142 9.461 0 16.303-4.86 22.928-10.613 1.099.884 5.596 3.038 6.52 3.98-6.3 5.305-20.98 9.582-29.303 9.582a24.14 24.14 0 01-2.33-.122v4.476h35.96V0H26.38zm0 11.394v-3.45c.334-.023.67-.041 1.012-.052 9.378-.296 15.53 8.107 15.53 8.107s-6.645 9.284-13.77 9.284a8.582 8.582 0 01-2.772-.446v-10.46c3.65.444 4.386 2.066 6.58 5.747l4.881-4.14s-3.563-4.702-9.57-4.702c-.652 0-1.277.046-1.89.112z" fill="#77B900"/></g><defs><clipPath id="clip0"><path fill="#fff" d="M0 0h81v60H0z"/></clipPath></defs></svg>